<svg width="79" height="79" viewBox="0 0 79 79" fill="none" xmlns="http://www.w3.org/2000/svg">
<path d="M33.511 57.9323H11.2551C9.08263 57.9323 7.59585 59.6861 7.95293 61.8285L9.49896 71.0984H35.268L36.814 61.8285C37.1703 59.6861 35.6867 57.9323 33.511 57.9323ZM22.3839 67.1484C21.2937 67.1484 20.4089 66.2644 20.4089 65.1734C20.4089 64.0832 21.2937 63.1992 22.3839 63.1992C23.4741 63.1992 24.3589 64.0832 24.3589 65.1734C24.3589 66.2644 23.4741 67.1484 22.3839 67.1484Z" fill="white"/>
<path d="M29.1857 53.9823C29.8643 52.8146 30.2815 51.478 30.2815 50.0331C30.2815 45.6715 26.743 42.1331 22.3846 42.1331C18.023 42.1331 14.4846 45.6715 14.4846 50.0331C14.4846 51.478 14.9009 52.8146 15.5803 53.9823H29.1857Z" fill="white"/>
<path d="M67.7457 57.9323H45.4866C43.3134 57.9323 41.8266 59.6861 42.1868 61.8285L43.7321 71.0984H69.4987L71.0463 61.8285C71.405 59.6861 69.9206 57.9323 67.7457 57.9323ZM56.6162 67.1484C55.5252 67.1484 54.6412 66.2644 54.6412 65.1734C54.6412 64.0832 55.5252 63.1992 56.6162 63.1992C57.7064 63.1992 58.5904 64.0832 58.5904 65.1734C58.5904 66.2644 57.7064 67.1484 56.6162 67.1484Z" fill="white"/>
<path d="M63.4172 53.9823C64.0958 52.8146 64.5153 51.478 64.5153 50.0331C64.5153 45.6715 60.9769 42.1331 56.6161 42.1331C52.2553 42.1331 48.7161 45.6715 48.7161 50.0331C48.7161 51.478 49.1348 52.8146 49.8142 53.9823H63.4172Z" fill="white"/>
<path d="M50.6295 23.7008H28.3681C26.1956 23.7008 24.712 25.4546 25.069 27.5963L26.6151 36.8669H52.3841L53.9325 27.5963C54.2888 25.4546 52.8052 23.7008 50.6295 23.7008ZM39.4976 32.9169C38.4066 32.9169 37.5226 32.0321 37.5226 30.9419C37.5226 29.8517 38.4066 28.9669 39.4976 28.9669C40.5878 28.9669 41.4726 29.8517 41.4726 30.9419C41.4726 32.0321 40.5878 32.9169 39.4976 32.9169Z" fill="white"/>
<path d="M46.3011 19.7508C46.9797 18.5831 47.3992 17.2465 47.3992 15.8008C47.3992 11.4392 43.8608 7.90076 39.4977 7.90076C35.1361 7.90076 31.5977 11.4392 31.5977 15.8008C31.5977 17.2457 32.0171 18.5831 32.6958 19.7508H46.3011Z" fill="white"/>
</svg>
