<svg width="740" height="383" viewBox="0 0 740 383" fill="none" xmlns="http://www.w3.org/2000/svg">
<path d="M266.258 124.175C276.078 121.963 286.727 129.784 288.119 139.65C289.799 151.555 278.782 160.7 269.861 166.337C260.045 172.54 249.395 178.081 243.99 188.925C239.319 198.296 238.642 209.707 242.483 219.484C249.918 238.408 271.171 244.921 285.275 257.564C288.724 260.655 291.784 264.176 294 268.261C296.908 273.623 298.098 279.741 297.824 285.811C297.266 298.167 290.578 309.195 281.498 317.263C272.147 325.572 259.382 329.755 251.473 339.713C248.082 343.983 245.514 349.382 245.896 354.961C246.228 359.789 248.623 364.547 252.573 367.408C254.498 368.801 256.716 369.582 259.08 369.754C260.525 369.86 260.518 367.609 259.08 367.504C253.928 367.128 250.097 362.754 248.713 358.028C247.102 352.526 249.072 346.864 252.287 342.343C255.95 337.192 261.218 333.545 266.518 330.255C271.89 326.922 277.352 323.77 282.177 319.649C291.216 311.928 298.116 301.43 299.734 289.495C300.555 283.442 300.053 277.147 297.893 271.408C296.159 266.799 293.416 262.673 290.059 259.087C283.479 252.057 274.987 247.182 267.006 241.948C259.021 236.711 250.852 230.814 246.213 222.222C241.13 212.807 240.975 200.903 245.389 191.202C247.752 186.008 251.365 181.725 255.811 178.181C260.654 174.321 266.14 171.37 271.351 168.055C280.425 162.282 290.173 153.842 290.5 142.205C290.778 132.345 282.416 123.431 272.911 121.821C270.487 121.41 268.059 121.465 265.659 122.005C264.247 122.323 264.845 124.493 266.258 124.175Z" fill="#3F3D56"/>
<path d="M503.742 125.175C493.922 122.963 483.273 130.784 481.881 140.65C480.201 152.555 491.218 161.7 500.139 167.337C509.955 173.54 520.605 179.081 526.01 189.925C530.681 199.296 531.358 210.707 527.517 220.484C520.083 239.408 498.829 245.921 484.725 258.564C481.276 261.655 478.216 265.176 476 269.261C473.092 274.623 471.902 280.741 472.176 286.811C472.734 299.167 479.422 310.195 488.502 318.263C497.853 326.572 510.618 330.755 518.526 340.713C521.918 344.983 524.486 350.382 524.104 355.961C523.772 360.789 521.377 365.547 517.427 368.408C515.502 369.801 513.284 370.582 510.919 370.754C509.475 370.86 509.482 368.609 510.919 368.504C516.072 368.128 519.903 363.754 521.287 359.028C522.898 353.526 520.928 347.864 517.713 343.343C514.05 338.192 508.782 334.545 503.482 331.255C498.11 327.922 492.648 324.77 487.823 320.649C478.784 312.928 471.884 302.43 470.266 290.495C469.445 284.442 469.947 278.147 472.107 272.408C473.841 267.799 476.584 263.673 479.94 260.087C486.521 253.057 495.013 248.182 502.994 242.948C510.979 237.711 519.148 231.814 523.787 223.222C528.87 213.807 529.025 201.903 524.611 192.202C522.248 187.008 518.635 182.725 514.189 179.181C509.346 175.321 503.86 172.37 498.649 169.055C489.575 163.282 479.827 154.842 479.5 143.205C479.222 133.345 487.584 124.431 497.089 122.821C499.513 122.41 501.941 122.465 504.34 123.005C505.752 123.323 505.155 125.493 503.742 125.175Z" fill="#3F3D56"/>
<path d="M662 60.5826L657.361 92.3614L632 92.8897V65.1637L662 60.5826Z" fill="#FFB6B6"/>
<path opacity="0.1" d="M662 60.5826L657.767 93.3614L632.406 93.8897V66.1637L662 60.5826Z" fill="black"/>
<path d="M17.5099 382.635H26.492L26.492 237.338H17.5099L17.5099 382.635Z" fill="#F2F2F2"/>
<path d="M53.438 382.635H62.42L62.42 237.338H53.438L53.438 382.635Z" fill="#F2F2F2"/>
<path d="M109.443 382.635H118.425L118.425 237.338H109.443L109.443 382.635Z" fill="#F2F2F2"/>
<path d="M126.351 382.635H135.333L135.333 237.338H126.351L126.351 382.635Z" fill="#F2F2F2"/>
<path d="M12.7548 235.224L0.531952 171.745C-1.71514 160.074 6.39945 148.944 18.1978 147.514L83.5541 139.592C83.5541 139.592 92.5361 213.034 92.5361 209.335C92.5361 205.637 181.564 218.581 148.277 237.074C114.991 255.566 25.1711 250.283 12.7548 235.224Z" fill="#F2F2F2"/>
<path d="M158.345 343.56L169.414 354.628L184.698 362.534L183.117 376.238L154.129 373.075L150.44 365.697L151.494 359.372L149.385 349.358L158.345 343.56Z" fill="#A0616A"/>
<path d="M181.009 370.967L181.914 359.339L213.159 374.129C213.159 374.129 215.579 380.981 208.044 382.035C200.51 383.089 150.44 383.089 150.44 380.454C150.44 377.819 149.07 364.327 149.07 364.327L179.428 373.075L181.009 370.967Z" fill="#2F2E41"/>
<path d="M118.536 312.817L110.531 326.268L106.627 343.028L92.9558 344.866L88.8908 315.99L95.1354 310.599L101.525 310.065L110.713 305.559L118.536 312.817Z" fill="#A0616A"/>
<path d="M97.5459 341.526L109.039 339.543L102.389 373.466C102.389 373.466 96.3427 377.497 93.4677 370.453C90.5927 363.41 78.2769 314.878 80.8312 314.229C83.3855 313.581 96.126 308.935 96.126 308.935L95.1135 340.512L97.5459 341.526Z" fill="#2F2E41"/>
<path d="M83.8183 61.1318L82.2333 93.3614L107.594 93.8898V66.1637L83.8183 61.1318Z" fill="#A0616A"/>
<path opacity="0.1" d="M83.8183 61.1318L82.2333 93.3614L107.594 93.8898V66.1637L83.8183 61.1318Z" fill="black"/>
<path d="M41.0217 194.277C41.0217 194.277 29.3979 224.393 37.8516 236.545C46.3052 248.697 85.9318 255.566 85.9318 255.566L102.311 270.888L145.636 354.368L170.997 348.556L135.069 262.963C135.069 262.963 113.934 228.62 106.009 223.865C98.0839 219.11 83.3264 201.256 83.3264 201.256L41.0217 194.277Z" fill="#2F2E41"/>
<path d="M112.878 196.919L129.153 208.445C129.153 208.445 186.847 223.865 168.355 259.793C149.863 295.721 122.388 321.61 122.388 321.61L98.0839 307.873L137.182 252.924L68.4961 211.184L112.878 196.919Z" fill="#2F2E41"/>
<path d="M260.812 153.107C268.46 154.646 273.865 159.839 272.885 164.706C271.905 169.573 264.911 172.27 257.261 170.73C254.196 170.157 251.313 168.858 248.854 166.942L216.531 160.012L219.303 147.237L251.591 153.348C254.601 152.532 257.763 152.449 260.812 153.107Z" fill="#A0616A"/>
<path d="M138.756 235.661C144.346 241.103 146.069 248.398 142.606 251.955C139.142 255.512 131.804 253.983 126.212 248.538C123.949 246.394 122.232 243.739 121.205 240.795L97.8116 217.439L107.072 208.211L130.88 230.861C133.851 231.809 136.552 233.455 138.756 235.661Z" fill="#A0616A"/>
<path d="M106.273 82.0018H73.3948L49.2112 98.3808L51.3246 162.84C51.3246 162.84 55.7436 179.027 40.7575 194.013C31.7755 202.995 34.9456 208.278 34.9456 208.278L88.3093 212.505L120.275 203.259L108.651 174.2L110.764 165.218C110.764 165.218 132.427 149.895 128.728 134.045C125.03 118.194 120.275 85.4361 120.275 85.4361L106.273 82.0018Z" fill="#CCCCCC"/>
<path d="M83.29 176.841L59.5141 98.645C59.5141 98.645 47.3619 94.4182 42.0784 104.985C36.7949 115.552 43.4409 155.971 43.4409 155.971L71.1379 201.674L115.52 235.489L126.615 223.336L83.29 176.841Z" fill="#CCCCCC"/>
<path d="M183.627 136.512L119.849 85.4003C119.849 85.4003 107.433 88.7737 109.039 100.478C110.646 112.183 138.954 141.789 138.954 141.789L187.619 163.868L243.343 166.715L245.638 150.421L183.627 136.512Z" fill="#CCCCCC"/>
<path d="M98.8764 76.1899C111.132 76.1899 121.067 66.2547 121.067 53.9991C121.067 41.7434 111.132 31.8082 98.8764 31.8082C86.6207 31.8082 76.6856 41.7434 76.6856 53.9991C76.6856 66.2547 86.6207 76.1899 98.8764 76.1899Z" fill="#A0616A"/>
<path d="M722.49 237.338H713.508V382.635H722.49V237.338Z" fill="#F2F2F2"/>
<path d="M686.562 237.338H677.58V382.635H686.562V237.338Z" fill="#F2F2F2"/>
<path d="M630.557 237.338H621.574V382.635H630.557V237.338Z" fill="#F2F2F2"/>
<path d="M613.649 237.338H604.667V382.635H613.649V237.338Z" fill="#F2F2F2"/>
<path d="M727.245 235.224L739.468 171.745C741.715 160.074 733.601 148.944 721.802 147.514L656.446 139.592C656.446 139.592 647.464 213.034 647.464 209.335C647.464 205.637 558.436 218.581 591.723 237.074C625.009 255.566 714.829 250.283 727.245 235.224Z" fill="#F2F2F2"/>
<path d="M581.655 343.56L570.586 354.628L555.302 362.534L556.883 376.238L585.871 373.075L589.56 365.697L588.506 359.372L590.615 349.358L581.655 343.56Z" fill="#FFB6B6"/>
<path d="M558.991 370.967L558.086 359.339L526.841 374.129C526.841 374.129 524.421 380.981 531.956 382.035C539.49 383.089 589.56 383.089 589.56 380.454C589.56 377.819 590.93 364.327 590.93 364.327L560.572 373.075L558.991 370.967Z" fill="#2F2E41"/>
<path d="M555.47 269.559L548.957 283.792L537.389 296.532L543.65 308.824L569.715 295.751L570.6 287.548L567.406 281.988L565.889 271.868L555.47 269.559Z" fill="#FFB6B6"/>
<path d="M543.788 303.149L538.884 292.567L514.759 317.326C514.759 317.326 514.881 324.591 522.31 322.951C529.739 321.311 576.665 303.849 575.746 301.379C574.827 298.91 571.406 285.787 571.406 285.787L546.005 304.574L543.788 303.149Z" fill="#2F2E41"/>
<path d="M698.978 194.277C698.978 194.277 710.602 224.393 702.148 236.545C693.695 248.697 654.068 255.566 654.068 255.566L637.689 270.888L594.364 354.368L569.003 348.556L604.931 262.963C604.931 262.963 626.065 228.62 633.991 223.865C641.916 219.11 656.674 201.256 656.674 201.256L698.978 194.277Z" fill="#2F2E41"/>
<path d="M654.03 208.318L635.294 201.482C635.294 201.482 589.806 162.788 570.765 198.428C551.723 234.068 546.047 271.39 546.047 271.39L571.166 283.573L594.139 220.167L667.528 252.938L654.03 208.318Z" fill="#2F2E41"/>
<path d="M548.405 228.289C543.383 234.259 542.392 241.689 546.192 244.885C549.992 248.08 557.142 245.831 562.165 239.858C564.205 237.5 565.649 234.687 566.379 231.656L587.338 206.092L577.208 197.83L555.766 222.731C552.904 223.969 550.38 225.875 548.405 228.289Z" fill="#FFB6B6"/>
<path d="M601.244 235.661C595.654 241.103 593.93 248.398 597.394 251.955C600.858 255.512 608.196 253.983 613.788 248.538C616.051 246.394 617.768 243.739 618.795 240.795L642.188 217.439L632.928 208.211L609.12 230.861C606.149 231.809 603.448 233.455 601.244 235.661Z" fill="#FFB6B6"/>
<path d="M633.727 82.0018H666.605L690.789 98.3808L688.675 162.84C688.675 162.84 684.256 179.027 699.243 194.013C708.225 202.995 705.054 208.278 705.054 208.278L651.691 212.505L619.725 203.259L631.349 174.2L629.236 165.218C629.236 165.218 607.573 149.895 611.272 134.045C614.97 118.194 619.725 85.4361 619.725 85.4361L633.727 82.0018Z" fill="#C70D6A"/>
<path d="M656.71 176.841L680.486 98.645C680.486 98.645 692.638 94.4182 697.922 104.985C703.205 115.552 696.559 155.971 696.559 155.971L668.862 201.674L624.48 235.489L613.385 223.336L656.71 176.841Z" fill="#C70D6A"/>
<path d="M598.424 167.207L616.447 87.4877C616.447 87.4877 628.259 82.3877 634.297 92.5423C640.336 102.697 636.649 143.492 636.649 143.492L612.351 191.089L570.548 228.044L558.598 216.732L598.424 167.207Z" fill="#C70D6A"/>
<path d="M265 125.583H258V381.583H265V125.583Z" fill="#3F3D56"/>
<path d="M259.698 161.165L196.198 109.18L197.802 107.985L261.302 159.969L259.698 161.165Z" fill="#3F3D56"/>
<path d="M263 130.083H259C252.107 130.083 246.5 124.475 246.5 117.583V83.5826C246.5 76.6901 252.107 71.0826 259 71.0826H263C269.893 71.0826 275.5 76.6901 275.5 83.5826V117.583C275.5 124.475 269.893 130.083 263 130.083Z" fill="#C70D6A"/>
<path d="M195.5 127.583C205.717 127.583 214 113.927 214 97.0826C214 80.238 205.717 66.5826 195.5 66.5826C185.283 66.5826 177 80.238 177 97.0826C177 113.927 185.283 127.583 195.5 127.583Z" fill="#C70D6A"/>
<path d="M262 114.583C251.278 114.583 231 113.12 231 107.583C231 104.864 235.812 102.847 245.301 101.589L245.563 103.571C235.308 104.932 233 106.974 233 107.583C233 109.28 243.236 112.583 262 112.583C280.764 112.583 291 109.28 291 107.583C291 106.728 287.469 104.566 276.554 103.341L276.777 101.353C284.178 102.184 293 103.939 293 107.583C293 113.12 272.722 114.583 262 114.583Z" fill="#3F3D56"/>
<path d="M503 381.583H510L510 125.583H503L503 381.583Z" fill="#3F3D56"/>
<path d="M508.302 161.165L571.802 109.18L570.198 107.985L506.698 159.969L508.302 161.165Z" fill="#3F3D56"/>
<path d="M492.5 117.583V83.5826C492.5 76.6901 498.107 71.0826 505 71.0826H509C515.893 71.0826 521.5 76.6901 521.5 83.5826V117.583C521.5 124.475 515.893 130.083 509 130.083H505C498.107 130.083 492.5 124.475 492.5 117.583Z" fill="#C70D6A"/>
<path d="M572.5 127.583C582.717 127.583 591 113.927 591 97.0826C591 80.238 582.717 66.5826 572.5 66.5826C562.283 66.5826 554 80.238 554 97.0826C554 113.927 562.283 127.583 572.5 127.583Z" fill="#C70D6A"/>
<path d="M506 114.583C495.278 114.583 475 113.12 475 107.583C475 103.939 483.822 102.184 491.223 101.353L491.446 103.341C480.531 104.566 477 106.728 477 107.583C477 109.28 487.236 112.583 506 112.583C524.764 112.583 535 109.28 535 107.583C535 106.974 532.692 104.932 522.437 103.571L522.699 101.589C532.188 102.847 537 104.864 537 107.583C537 113.12 516.722 114.583 506 114.583Z" fill="#3F3D56"/>
<path d="M645.024 73.3947C658.072 73.3947 668.649 62.8175 668.649 49.7699C668.649 36.7223 658.072 26.1451 645.024 26.1451C631.977 26.1451 621.399 36.7223 621.399 49.7699C621.399 62.8175 631.977 73.3947 645.024 73.3947Z" fill="#FFB6B6"/>
<path d="M646.91 18.008C646.226 18.4071 645.31 17.8033 645.091 17.0427C644.872 16.2821 645.127 15.4746 645.38 14.7246L646.655 10.9492C647.559 8.27158 648.519 5.5004 650.477 3.46239C653.432 0.386339 658.128 -0.3962 662.356 0.170719C667.785 0.89875 673.142 3.83862 675.666 8.70007C678.191 13.5615 677.116 20.345 672.554 23.378C679.056 30.8294 681.322 39.1336 680.964 49.0159C680.606 58.8981 669.837 67.993 662.814 74.9547C661.246 74.004 659.82 69.5485 660.682 67.9299C661.545 66.3114 660.309 64.4362 661.377 62.9453C662.445 61.4544 663.339 63.8284 662.259 62.346C661.578 61.4105 664.237 59.2585 663.224 58.6986C658.325 55.9906 656.696 49.8842 653.619 45.208C649.908 39.5677 643.556 35.7481 636.834 35.1144C633.131 34.7653 629.22 35.3976 626.184 37.5473C623.149 39.697 621.184 43.5386 621.888 47.1907C620.065 45.3399 619.158 42.6276 619.5 40.0526C619.843 37.4776 621.427 35.0964 623.67 33.7859C622.306 29.276 623.474 24.0882 626.64 20.5982C629.805 17.1083 642.646 17.7027 647.267 18.6212" fill="#2F2E41"/>
<path d="M647.627 35.2513C653.748 35.9121 658.167 41.214 661.899 46.1103C664.05 48.9324 666.303 52.0489 666.249 55.5969C666.194 59.1839 663.796 62.2606 662.65 65.66C660.776 71.2165 662.602 77.8274 667.062 81.6347C662.655 82.4709 657.892 79.1668 657.131 74.7464C656.245 69.6005 660.146 64.634 659.684 59.433C659.277 54.8508 655.666 51.3243 652.596 47.8982C649.526 44.4722 646.643 39.9259 648.056 35.5478" fill="#2F2E41"/>
<path d="M87.5015 16.8481C87.5015 16.8481 78.606 10.4236 70.6989 24.261C65.2978 33.7131 62.4331 51.697 61.1598 62.1465C60.5738 66.9558 63.0672 71.6135 67.3883 73.8045L95.4086 88.0119C95.4086 88.0119 85.0305 48.4765 99.3622 42.5462C113.694 36.6159 113.2 38.0984 113.2 38.0984C113.2 38.0984 124.566 62.8081 109.74 73.6803L122.095 81.5874C122.095 81.5874 130.496 35.1333 115.176 26.2378C99.8563 17.3423 103.316 10.9178 87.5015 16.8481Z" fill="#2F2E41"/>
</svg>
