<svg width="200" height="200" viewBox="0 0 200 200" fill="none" xmlns="http://www.w3.org/2000/svg">
<path fill-rule="evenodd" clip-rule="evenodd" d="M100 25C58.5787 25 25 58.5787 25 100C25 123.395 35.7022 144.284 52.5093 158.052C56.0697 160.968 56.5917 166.219 53.6752 169.779C50.7588 173.339 45.5083 173.862 41.9479 170.945C21.4421 154.148 8.33334 128.602 8.33334 100C8.33334 49.374 49.3739 8.33337 100 8.33337C150.626 8.33337 191.667 49.374 191.667 100C191.667 128.602 178.557 154.148 158.052 170.945C154.492 173.862 149.242 173.339 146.325 169.779C143.408 166.219 143.93 160.968 147.491 158.052C164.298 144.284 175 123.395 175 100C175 58.5787 141.422 25 100 25ZM100 58.3334C76.9882 58.3334 58.3333 76.9882 58.3333 100C58.3333 112.996 64.2733 124.598 73.6179 132.253C77.1783 135.169 77.7002 140.419 74.7838 143.98C71.8673 147.54 66.6168 148.062 63.0564 145.146C50.0133 134.462 41.6667 118.202 41.6667 100C41.6667 67.7835 67.7834 41.6667 100 41.6667C132.217 41.6667 158.333 67.7835 158.333 100C158.333 118.202 149.987 134.462 136.943 145.146C133.383 148.062 128.133 147.54 125.217 143.98C122.3 140.419 122.822 135.169 126.383 132.253C135.727 124.598 141.667 112.996 141.667 100C141.667 76.9882 123.012 58.3334 100 58.3334ZM100 91.6667C95.3975 91.6667 91.6667 95.3975 91.6667 100C91.6667 104.603 95.3975 108.333 100 108.333C104.603 108.333 108.333 104.603 108.333 100C108.333 95.3975 104.603 91.6667 100 91.6667ZM75 100C75 86.1925 86.1925 75 100 75C113.808 75 125 86.1925 125 100C125 113.808 113.808 125 100 125C86.1925 125 75 113.808 75 100ZM100 141.667C102.623 141.667 105.093 142.902 106.667 145L131.667 178.333C133.561 180.858 133.865 184.237 132.453 187.06C131.042 189.883 128.157 191.667 125 191.667H75C71.8436 191.667 68.958 189.883 67.5464 187.06C66.1348 184.237 66.4395 180.858 68.3333 178.333L93.3333 145C94.9075 142.902 97.3767 141.667 100 141.667ZM91.6667 175H108.333L100 163.889L91.6667 175Z" fill="white"/>
</svg>
