<svg width="204" height="205" viewBox="0 0 204 205" fill="none" xmlns="http://www.w3.org/2000/svg">
<g clip-path="url(#clip0_10_12)">
<path fill-rule="evenodd" clip-rule="evenodd" d="M50.3551 0H153.628C159.374 0 164.064 4.68791 164.064 10.3935V21.1873H39.9189V10.3935C39.9189 4.67122 44.6093 0 50.3551 0ZM18.812 64.0291H185.188C195.54 64.0291 204 72.454 204 82.7641V186.265C204 196.575 195.54 205 185.188 205H18.812C8.45952 205 0 196.575 0 186.265V82.7641C0 72.454 8.45952 64.0291 18.812 64.0291ZM90.6425 97.395L136.357 129.143C137.111 129.626 137.798 130.26 138.334 131.028C140.478 134.114 139.691 138.352 136.592 140.487L91.078 171.834C89.9054 172.802 88.3978 173.369 86.7394 173.369C82.9535 173.369 79.888 170.316 79.888 166.546V102.967H79.9215C79.9215 101.616 80.3235 100.264 81.1444 99.08C83.3053 95.9937 87.5602 95.2429 90.6425 97.395ZM30.3873 31.3806H173.596C179.342 31.3806 184.032 36.0685 184.032 41.7741V52.985H19.9511V41.7741C19.9511 36.0518 24.6415 31.3806 30.3873 31.3806Z" fill="white"/>
</g>
<defs>
<clipPath id="clip0_10_12">
<rect width="204" height="205" fill="white"/>
</clipPath>
</defs>
</svg>
